<?xml version="1.0" encoding="utf-8"?>
<!-- Generator: Adobe Illustrator 23.0.1, SVG Export Plug-In . SVG Version: 6.00 Build 0)  -->
<svg version="1.1" id="Layer_1" xmlns="http://www.w3.org/2000/svg" xmlns:xlink="http://www.w3.org/1999/xlink" x="0px" y="0px"
	 viewBox="0 0 2039 2039" style="enable-background:new 0 0 2039 2039;" xml:space="preserve">
<style type="text/css">
	.st0{fill:#90CC34;}
	.st1{fill:#4BAE48;}
	.st2{fill:#221E22;}
	.st3{fill:#532206;}
	.st4{fill:#FBFDB3;}
	.st5{fill:#F2F917;}
	.st6{fill:#E2E906;}
	.st7{fill:#5B4130;}
	.st8{fill:#FFFFFF;}
	.st9{fill:#EA9403;}
	.st10{fill:#C27006;}
	.st11{fill:#893604;}
</style>
<g id="NewGroupe0_24_">
	<g id="NewGroup24-0">
		<g>
			<path class="st0" d="M1222.6,1264.3c-54.8,38.1-122.2,44.3-180.4,22.8c0.1-62,29.5-123,84.3-161.1
				c54.8-38.1,122.2-44.3,180.4-22.8C1306.7,1165.2,1277.4,1226.2,1222.6,1264.3L1222.6,1264.3z"/>
			<path class="st1" d="M1306.9,1103.2c-0.1,62-29.5,123-84.3,161.1c-54.8,38.1-122.2,44.3-180.4,22.8"/>
			<path class="st2" d="M1217.1,1256.4L1217.1,1256.4c-44.8,31.1-100.8,40.8-153.2,27.3l232.3-161.4
				C1290.5,1176.1,1261.9,1225.3,1217.1,1256.4L1217.1,1256.4z M1132,1133.9c44.8-31.1,100.8-40.8,153.2-27.3l-232.3,161.4
				C1058.6,1214.1,1087.2,1165,1132,1133.9L1132,1133.9z M1310.2,1094.2c-63.3-23.4-134-14.5-189.2,23.9
				c-53.8,37.4-86.4,98.3-88.2,163.8l-15.2,10.6c-4.4,3-5.4,9-2.4,13.4c1.9,2.7,4.9,4.1,7.9,4.1c1.9,0,3.8-0.6,5.5-1.7l15.2-10.6
				c21.8,7.4,44.4,11.2,66.9,11.2c41.5,0,82.6-12.5,117.5-36.7c0,0,0,0,0,0c55.2-38.4,88.2-101.5,88.4-169
				C1316.5,1099.2,1314,1095.6,1310.2,1094.2L1310.2,1094.2z"/>
			<path class="st0" d="M816.4,1264.3c54.8,38.1,122.2,44.3,180.4,22.8c-0.1-62-29.5-123-84.3-161.1
				c-54.8-38.1-122.2-44.3-180.4-22.8C732.3,1165.2,761.6,1226.2,816.4,1264.3L816.4,1264.3z"/>
			<path class="st1" d="M732.1,1103.2c0.1,62,29.5,123,84.3,161.1c54.8,38.1,122.2,44.3,180.4,22.8"/>
			<path class="st2" d="M821.9,1256.4L821.9,1256.4c-44.8-31.1-73.4-80.2-79.1-134l232.3,161.4
				C922.7,1297.2,866.7,1287.5,821.9,1256.4L821.9,1256.4z M907,1133.9c44.8,31.1,73.4,80.3,79.1,134.1l-232.3-161.4
				C806.2,1093,862.2,1102.8,907,1133.9L907,1133.9z M1021.5,1292.5l-15.2-10.6c-1.8-65.5-34.4-126.5-88.2-163.8
				c-55.2-38.4-125.9-47.3-189.2-23.9c-3.8,1.4-6.3,5-6.3,9c0.2,67.4,33.2,130.6,88.4,169c0,0,0,0,0,0c34.9,24.2,76,36.7,117.5,36.7
				c22.5,0,45.1-3.7,66.9-11.2l15.2,10.6c1.7,1.2,3.6,1.7,5.5,1.7c3,0,6-1.4,7.9-4.1C1026.9,1301.5,1025.8,1295.6,1021.5,1292.5
				L1021.5,1292.5z"/>
			<path class="st3" d="M994.2,1315.7v-294.4c0-14,11.3-25.3,25.3-25.3l0,0c14,0,25.3,11.4,25.3,25.3v294.4"/>
			<path class="st2" d="M1044.8,1325.3c-5.3,0-9.6-4.3-9.6-9.6v-294.4c0-8.7-7.1-15.7-15.7-15.7c-8.7,0-15.7,7.1-15.7,15.7v294.4
				c0,5.3-4.3,9.6-9.6,9.6c-5.3,0-9.6-4.3-9.6-9.6v-294.4c0-19.3,15.7-35,35-35c19.3,0,35,15.7,35,35v294.4
				C1054.5,1321,1050.2,1325.3,1044.8,1325.3L1044.8,1325.3z"/>
			<path class="st4" d="M1335,810.8c0,132.6-141.3,240.1-315.5,240.1c-174.3,0-315.5-107.5-315.5-240.1
				c0-132.6,141.3-291.5,315.5-291.5C1193.8,519.4,1335,678.2,1335,810.8L1335,810.8z"/>
			<path class="st5" d="M1335,810.8c0,132.6-141.3,240.1-315.5,240.1c-174.3,0-315.5-107.5-315.5-240.1c0-132.6,141.3-224,315.5-224
				C1193.8,586.9,1335,678.2,1335,810.8L1335,810.8z"/>
			<path class="st4" d="M1086.7,917.4c0,8.9-30.1,10.5-67.2,10.5c-37.1,0-67.2-1.6-67.2-10.5c0-8.9,30.1-32.3,67.2-32.3
				C1056.6,885.2,1086.7,908.5,1086.7,917.4L1086.7,917.4z"/>
			<path class="st6" d="M1335,810.8c0,132.6-141.3,240.1-315.5,240.1c-174.3,0-315.5-107.5-315.5-240.1
				c0-132.6,40.1,117.6,315.5,117.6C1294.9,928.4,1335,678.2,1335,810.8L1335,810.8z"/>
			<path class="st2" d="M1019.5,529C850,529,713.6,683.2,713.6,810.8c0,127.1,137.2,230.4,305.9,230.4
				c168.7,0,305.9-103.4,305.9-230.4C1325.4,683.2,1188.9,529,1019.5,529L1019.5,529z M1019.5,1060.5
				c-179.3,0-325.1-112-325.1-249.7c0-136.4,145-301.1,325.1-301.1c180.1,0,325.1,164.7,325.1,301.1
				C1344.6,948.5,1198.8,1060.5,1019.5,1060.5L1019.5,1060.5z"/>
			<path class="st7" d="M915.9,835.6c0,28.5-23.1,51.6-51.6,51.6c-28.5,0-51.6-23.1-51.6-51.6c0-28.5,23.1-51.6,51.6-51.6
				C892.8,784,915.9,807.1,915.9,835.6L915.9,835.6z"/>
			<path class="st8" d="M838.6,797.8c11.6,0,21,9.4,21,21c0,11.6-9.4,21-21,21c-11.6,0-21-9.4-21-21
				C817.5,807.2,827,797.8,838.6,797.8L838.6,797.8z"/>
			<path class="st2" d="M864.2,877.6c-17.4,0-32.4-10.7-38.8-25.9c4.4-0.1,9.8-1.3,15.8-2.5c2.2-0.2,4.2-0.6,6.2-1.2
				c5.3-0.9,10.9-1.7,16.7-1.7c15.5,0,29.3,5.2,38.8,5.5C896.7,866.9,881.7,877.6,864.2,877.6L864.2,877.6z M864.2,774.4
				c-20.8,0-39.2,10.4-50.3,26.3c-0.7,0.9-1.3,1.9-1.8,2.9c-5.8,9.3-9.1,20.3-9.1,32c0,33.8,27.5,61.2,61.2,61.2
				c33.8,0,61.3-27.5,61.3-61.2C925.5,801.9,898,774.4,864.2,774.4L864.2,774.4z"/>
			<path class="st8" d="M838.6,807.5c6.3,0,11.4,5.1,11.4,11.4c0,6.3-5.1,11.4-11.4,11.4c-6.3,0-11.4-5.1-11.4-11.4
				C827.2,812.6,832.3,807.5,838.6,807.5L838.6,807.5z"/>
			<path class="st7" d="M1226.4,835.6c0,28.5-23.1,51.6-51.6,51.6c-28.5,0-51.6-23.1-51.6-51.6c0-28.5,23.1-51.6,51.6-51.6
				C1203.3,784,1226.4,807.1,1226.4,835.6L1226.4,835.6z"/>
			<path class="st8" d="M1149.1,797.8c11.6,0,21,9.4,21,21c0,11.6-9.4,21-21,21c-11.6,0-21-9.4-21-21
				C1128.1,807.2,1137.5,797.8,1149.1,797.8L1149.1,797.8z"/>
			<path class="st2" d="M1174.8,877.6c-17.5,0-32.4-10.7-38.8-25.9c4.4-0.1,9.8-1.3,15.8-2.5c2.1-0.2,4.2-0.6,6.2-1.2
				c5.3-0.9,10.9-1.7,16.7-1.7c15.5,0,29.3,5.2,38.8,5.5C1207.2,866.9,1192.2,877.6,1174.8,877.6L1174.8,877.6z M1174.8,774.4
				c-20.8,0-39.2,10.4-50.2,26.3c-0.7,0.9-1.3,1.9-1.9,2.9c-5.7,9.3-9.1,20.3-9.1,32c0,33.8,27.5,61.2,61.3,61.2
				c33.8,0,61.2-27.5,61.2-61.2C1236,801.9,1208.5,774.4,1174.8,774.4L1174.8,774.4z"/>
			<path class="st8" d="M1149.1,807.5c6.3,0,11.4,5.1,11.4,11.4c0,6.3-5.1,11.4-11.4,11.4c-6.3,0-11.4-5.1-11.4-11.4
				C1137.7,812.6,1142.8,807.5,1149.1,807.5L1149.1,807.5z"/>
			<path class="st9" d="M1159.8,1065.3c0,14.2-11.5,25.6-25.6,25.6H904.9c-14.2,0-25.6-11.5-25.6-25.6V943
				c0-14.2,11.5-25.7,25.6-25.7h229.2c14.2,0,25.6,11.5,25.6,25.7V1065.3L1159.8,1065.3z"/>
			<path class="st10" d="M1134.1,953.8H904.9c-14.2,0-25.6,11.5-25.6,25.6v85.8c0,14.2,11.5,25.6,25.6,25.6h229.2
				c14.2,0,25.6-11.5,25.6-25.6v-85.8C1159.8,965.3,1148.3,953.8,1134.1,953.8L1134.1,953.8z"/>
			<path class="st2" d="M904.9,926.9c-8.8,0-16,7.2-16,16v122.3c0,8.8,7.2,16,16,16h229.2c8.8,0,16-7.2,16-16V943
				c0-8.8-7.2-16-16-16H904.9L904.9,926.9z M1134.1,1100.5H904.9c-19.4,0-35.3-15.8-35.3-35.3V943c0-19.4,15.8-35.3,35.3-35.3h229.2
				c19.4,0,35.3,15.8,35.3,35.3v122.3C1169.4,1084.7,1153.6,1100.5,1134.1,1100.5L1134.1,1100.5z"/>
			<path class="st11" d="M1100.2,1037.5c0,7.4-6,13.4-13.5,13.4H952.2c-7.4,0-13.5-6-13.5-13.4v-64.2c0-7.4,6-13.4,13.5-13.4h134.6
				c7.4,0,13.5,6,13.5,13.4V1037.5L1100.2,1037.5z"/>
			<path class="st3" d="M1086.8,959.9H952.2c-7.4,0-13.5,6-13.5,13.4v22.8c0,7.4,6,13.4,13.5,13.4h134.6c7.4,0,13.5-6,13.5-13.4
				v-22.8C1100.2,966,1094.2,959.9,1086.8,959.9L1086.8,959.9z"/>
			<path class="st2" d="M952.2,969.6c-2.1,0-3.8,1.7-3.8,3.8v64.2c0,2.1,1.7,3.8,3.8,3.8h134.6c2.1,0,3.8-1.7,3.8-3.8v-64.2
				c0-2.1-1.7-3.8-3.8-3.8H952.2L952.2,969.6z M1086.8,1060.6H952.2c-12.7,0-23.1-10.4-23.1-23.1v-64.2c0-12.7,10.3-23.1,23.1-23.1
				h134.6c12.7,0,23.1,10.3,23.1,23.1v64.2C1109.9,1050.3,1099.5,1060.6,1086.8,1060.6L1086.8,1060.6z"/>
		</g>
	</g>
</g>
</svg>
