<?xml version="1.0" encoding="utf-8"?>
<!-- Generator: Adobe Illustrator 23.0.1, SVG Export Plug-In . SVG Version: 6.00 Build 0)  -->
<svg version="1.1"
	 id="svg2" sodipodi:docname="shutterstock_470259017.eps" xmlns:cc="http://creativecommons.org/ns#" xmlns:dc="http://purl.org/dc/elements/1.1/" xmlns:inkscape="http://www.inkscape.org/namespaces/inkscape" xmlns:rdf="http://www.w3.org/1999/02/22-rdf-syntax-ns#" xmlns:sodipodi="http://sodipodi.sourceforge.net/DTD/sodipodi-0.dtd" xmlns:svg="http://www.w3.org/2000/svg"
	 xmlns="http://www.w3.org/2000/svg" xmlns:xlink="http://www.w3.org/1999/xlink" x="0px" y="0px" viewBox="0 0 400 400"
	 style="enable-background:new 0 0 400 400;" xml:space="preserve">
<style type="text/css">
	.st0{clip-path:url(#SVGID_2_);}
	.st1{fill:#242424;}
	.st2{fill:#DC4437;}
	.st3{fill:#FFFFFF;}
	.st4{clip-path:url(#SVGID_4_);}
	.st5{clip-path:url(#SVGID_6_);}
	.st6{clip-path:url(#SVGID_8_);}
	.st7{clip-path:url(#SVGID_10_);}
</style>
<sodipodi:namedview  bordercolor="#666666" borderopacity="1" gridtolerance="10" guidetolerance="10" id="namedview4" inkscape:pageopacity="0" inkscape:pageshadow="2" inkscape:window-height="480" inkscape:window-width="640" objecttolerance="10" pagecolor="#ffffff">
	</sodipodi:namedview>
<g id="g10" transform="matrix(1.3333333,0,0,-1.3333333,0,400)" inkscape:groupmode="layer" inkscape:label="ink_ext_XXXXXX">
	<g id="g12" transform="scale(0.1)">
		<g id="g14">
			<g>
				<defs>
					<rect id="SVGID_1_" x="1300" y="1486.7" width="400" height="26.7"/>
				</defs>
				<clipPath id="SVGID_2_">
					<use xlink:href="#SVGID_1_"  style="overflow:visible;"/>
				</clipPath>
				<g id="g16" class="st0">
					<path id="path22" class="st1" d="M3000,1400H0v200h3000V1400"/>
					<path id="path24" class="st2" d="M0,1600h3000v1300H0V1600"/>
					<path id="path26" class="st3" d="M0,100h3000v1300H0V100"/>
				</g>
			</g>
		</g>
		<g id="g28">
			<g>
				<defs>
					<rect id="SVGID_3_" x="1300" y="2943.3" width="400" height="13.3"/>
				</defs>
				<clipPath id="SVGID_4_">
					<use xlink:href="#SVGID_3_"  style="overflow:visible;"/>
				</clipPath>
				<g id="g30" class="st4">
					<path id="path36" class="st1" d="M3000,2900H0v100h3000V2900"/>
					<path id="path38" class="st2" d="M0,1600h3000v1300H0V1600"/>
				</g>
			</g>
		</g>
		<g id="g40">
			<g>
				<defs>
					<rect id="SVGID_5_" x="1300" y="2163.3" width="400" height="173.3"/>
				</defs>
				<clipPath id="SVGID_6_">
					<use xlink:href="#SVGID_5_"  style="overflow:visible;"/>
				</clipPath>
				<g id="g42" class="st5">
					<path id="path48" class="st1" d="M3000,1400H0v200h3000V1400"/>
					<path id="path50" class="st1" d="M3000,2900H0v100h3000V2900"/>
					<path id="path52" class="st2" d="M0,1600h3000v1300H0V1600"/>
				</g>
			</g>
		</g>
		<g id="g54">
			<g>
				<defs>
					<rect id="SVGID_7_" x="1300" y="43.3" width="400" height="13.3"/>
				</defs>
				<clipPath id="SVGID_8_">
					<use xlink:href="#SVGID_7_"  style="overflow:visible;"/>
				</clipPath>
				<g id="g56" class="st6">
					<path id="path62" class="st1" d="M3000,0H0v100h3000V0"/>
					<path id="path64" class="st3" d="M0,100h3000v1300H0V100"/>
				</g>
			</g>
		</g>
		<g id="g66">
			<g>
				<defs>
					<rect id="SVGID_9_" x="1300" y="663.3" width="400" height="173.3"/>
				</defs>
				<clipPath id="SVGID_10_">
					<use xlink:href="#SVGID_9_"  style="overflow:visible;"/>
				</clipPath>
				<g id="g68" class="st7">
					<path id="path74" class="st1" d="M3000,1400H0v200h3000V1400"/>
					<path id="path76" class="st1" d="M3000,0H0v100h3000V0"/>
					<path id="path78" class="st3" d="M0,100h3000v1300H0V100"/>
				</g>
			</g>
		</g>
	</g>
</g>
</svg>
